SplineFontDB: 3.2
FontName: Untitled2
FullName: Untitled2
FamilyName: Untitled2
Weight: Regular
Copyright: Copyright (c) 2023, menadue
UComments: "2023-12-26: Created with FontForge (http://fontforge.org)"
Version: 001.000
ItalicAngle: 0
UnderlinePosition: -25.6
UnderlineWidth: 12.8
Ascent: 205
Descent: 51
InvalidEm: 0
LayerCount: 2
Layer: 0 0 "Back" 1
Layer: 1 0 "Fore" 0
XUID: [1021 152 -1633089649 9226711]
StyleMap: 0x0000
FSType: 0
OS2Version: 0
OS2_WeightWidthSlopeOnly: 0
OS2_UseTypoMetrics: 1
CreationTime: 1703634389
ModificationTime: 1703635724
OS2TypoAscent: 0
OS2TypoAOffset: 1
OS2TypoDescent: 0
OS2TypoDOffset: 1
OS2TypoLinegap: 23
OS2WinAscent: 0
OS2WinAOffset: 1
OS2WinDescent: 0
OS2WinDOffset: 1
HheadAscent: 0
HheadAOffset: 1
HheadDescent: 0
HheadDOffset: 1
MarkAttachClasses: 1
DEI: 91125
Encoding: ISO8859-1
UnicodeInterp: none
NameList: AGL For New Fonts
DisplaySize: -48
AntiAlias: 1
FitToEm: 0
WinInfo: 26 26 4
BeginPrivate: 0
EndPrivate
BeginChars: 256 63

StartChar: plus
Encoding: 43 43 0
Width: 224
Flags: HW
LayerCount: 2
Fore
SplineSet
96 0 m 1
 96 64 l 1
 32 64 l 1
 32 96 l 1
 96 96 l 1
 96 160 l 1
 128 160 l 1
 128 96 l 1
 192 96 l 1
 192 64 l 1
 128 64 l 1
 128 0 l 1
 96 0 l 1
EndSplineSet
Validated: 1
EndChar

StartChar: exclam
Encoding: 33 33 1
Width: 96
Flags: HW
LayerCount: 2
Fore
SplineSet
32 64 m 1
 32 160 l 1
 64 160 l 1
 64 64 l 1
 32 64 l 1
32 0 m 1
 32 32 l 1
 64 32 l 1
 64 0 l 1
 32 0 l 1
EndSplineSet
Validated: 1
EndChar

StartChar: quotedbl
Encoding: 34 34 2
Width: 160
Flags: HW
LayerCount: 2
Fore
SplineSet
96 96 m 1
 96 160 l 1
 128 160 l 1
 128 96 l 1
 96 96 l 1
32 96 m 1
 32 160 l 1
 64 160 l 1
 64 96 l 1
 32 96 l 1
EndSplineSet
Validated: 1
EndChar

StartChar: numbersign
Encoding: 35 35 3
Width: 224
Flags: HW
LayerCount: 2
Fore
SplineSet
64 0 m 1
 64 32 l 1
 32 32 l 1
 32 64 l 1
 64 64 l 1
 64 96 l 1
 32 96 l 1
 32 128 l 1
 64 128 l 1
 64 160 l 1
 96 160 l 1
 96 128 l 1
 128 128 l 1
 128 160 l 1
 160 160 l 1
 160 128 l 1
 192 128 l 1
 192 96 l 1
 160 96 l 1
 160 64 l 1
 192 64 l 1
 192 32 l 1
 160 32 l 1
 160 0 l 1
 128 0 l 1
 128 32 l 1
 96 32 l 1
 96 0 l 1
 64 0 l 1
96 64 m 1
 128 64 l 1
 128 96 l 1
 96 96 l 1
 96 64 l 1
EndSplineSet
Validated: 1
EndChar

StartChar: dollar
Encoding: 36 36 4
Width: 192
Flags: HW
LayerCount: 2
Fore
SplineSet
64 128 m 1
 64 160 l 1
 96 160 l 1
 96 192 l 1
 128 192 l 1
 128 160 l 1
 160 160 l 1
 160 128 l 1
 64 128 l 1
64 -32 m 1
 64 0 l 1
 32 0 l 1
 32 32 l 1
 128 32 l 1
 128 64 l 1
 64 64 l 1
 64 96 l 1
 32 96 l 1
 32 128 l 1
 64 128 l 1
 64 96 l 1
 128 96 l 1
 128 64 l 1
 160 64 l 1
 160 32 l 1
 128 32 l 1
 128 0 l 1
 96 0 l 1
 96 -32 l 1
 64 -32 l 1
EndSplineSet
Validated: 5
EndChar

StartChar: percent
Encoding: 37 37 5
Width: 224
Flags: HW
LayerCount: 2
Fore
SplineSet
128 0 m 1
 128 64 l 1
 96 64 l 1
 96 96 l 1
 32 96 l 1
 32 160 l 1
 96 160 l 1
 96 96 l 1
 128 96 l 1
 128 64 l 1
 192 64 l 1
 192 0 l 1
 128 0 l 1
128 96 m 1
 128 160 l 1
 160 160 l 1
 160 96 l 1
 128 96 l 1
64 0 m 1
 64 64 l 1
 96 64 l 1
 96 0 l 1
 64 0 l 1
EndSplineSet
Validated: 5
EndChar

StartChar: ampersand
Encoding: 38 38 6
Width: 192
Flags: HW
LayerCount: 2
Fore
SplineSet
96 -32 m 1
 96 0 l 1
 64 0 l 1
 64 32 l 1
 32 32 l 1
 32 64 l 1
 64 64 l 1
 64 96 l 1
 32 96 l 1
 32 128 l 1
 64 128 l 1
 64 160 l 1
 96 160 l 1
 96 192 l 1
 128 192 l 1
 128 160 l 1
 160 160 l 1
 160 128 l 1
 64 128 l 1
 64 96 l 1
 128 96 l 1
 128 64 l 1
 64 64 l 1
 64 32 l 1
 160 32 l 1
 160 0 l 1
 128 0 l 1
 128 -32 l 1
 96 -32 l 1
EndSplineSet
Validated: 5
EndChar

StartChar: quotesingle
Encoding: 39 39 7
Width: 96
Flags: HW
LayerCount: 2
Fore
SplineSet
32 96 m 1
 32 160 l 1
 64 160 l 1
 64 96 l 1
 32 96 l 1
EndSplineSet
Validated: 1
EndChar

StartChar: parenleft
Encoding: 40 40 8
Width: 128
Flags: HW
LayerCount: 2
Fore
SplineSet
64 128 m 1
 64 160 l 1
 96 160 l 1
 96 128 l 1
 64 128 l 1
64 0 m 1
 64 32 l 1
 32 32 l 1
 32 128 l 1
 64 128 l 1
 64 32 l 1
 96 32 l 1
 96 0 l 1
 64 0 l 1
EndSplineSet
Validated: 5
EndChar

StartChar: parenright
Encoding: 41 41 9
Width: 128
Flags: HW
LayerCount: 2
Fore
SplineSet
64 32 m 1
 64 128 l 1
 32 128 l 1
 32 160 l 1
 64 160 l 1
 64 128 l 1
 96 128 l 1
 96 32 l 1
 64 32 l 1
32 0 m 1
 32 32 l 1
 64 32 l 1
 64 0 l 1
 32 0 l 1
EndSplineSet
Validated: 5
EndChar

StartChar: asterisk
Encoding: 42 42 10
Width: 224
Flags: HW
LayerCount: 2
Fore
SplineSet
96 0 m 1
 96 64 l 1
 64 64 l 1
 64 32 l 1
 32 32 l 1
 32 64 l 1
 64 64 l 1
 64 96 l 1
 32 96 l 1
 32 128 l 1
 64 128 l 1
 64 96 l 1
 96 96 l 1
 96 160 l 1
 128 160 l 1
 128 96 l 1
 160 96 l 1
 160 64 l 1
 192 64 l 1
 192 32 l 1
 160 32 l 1
 160 64 l 1
 128 64 l 1
 128 0 l 1
 96 0 l 1
160 96 m 1
 160 128 l 1
 192 128 l 1
 192 96 l 1
 160 96 l 1
EndSplineSet
Validated: 5
EndChar

StartChar: comma
Encoding: 44 44 11
Width: 128
Flags: HW
LayerCount: 2
Fore
SplineSet
64 0 m 1
 64 32 l 1
 96 32 l 1
 96 0 l 1
 64 0 l 1
32 -32 m 1
 32 0 l 1
 64 0 l 1
 64 -32 l 1
 32 -32 l 1
EndSplineSet
Validated: 5
EndChar

StartChar: hyphen
Encoding: 45 45 12
Width: 160
Flags: HW
LayerCount: 2
Fore
SplineSet
32 64 m 1
 32 96 l 1
 128 96 l 1
 128 64 l 1
 32 64 l 1
EndSplineSet
Validated: 1
EndChar

StartChar: period
Encoding: 46 46 13
Width: 96
Flags: HWO
LayerCount: 2
Fore
SplineSet
34 60 m 5
 34 92 l 5
 66 92 l 5
 66 60 l 5
 34 60 l 5
EndSplineSet
EndChar

StartChar: slash
Encoding: 47 47 14
Width: 160
Flags: HW
LayerCount: 2
Fore
SplineSet
96 96 m 1
 96 160 l 1
 128 160 l 1
 128 96 l 1
 96 96 l 1
64 64 m 1
 64 96 l 1
 96 96 l 1
 96 64 l 1
 64 64 l 1
32 0 m 1
 32 64 l 1
 64 64 l 1
 64 0 l 1
 32 0 l 1
EndSplineSet
Validated: 5
EndChar

StartChar: zero
Encoding: 48 48 15
Width: 192
Flags: HW
LayerCount: 2
Fore
SplineSet
64 0 m 1
 64 32 l 1
 32 32 l 1
 32 128 l 1
 64 128 l 1
 64 160 l 1
 128 160 l 1
 128 128 l 1
 160 128 l 1
 160 32 l 1
 128 32 l 1
 128 0 l 1
 64 0 l 1
64 33 m 1
 128 33 l 1
 128 127 l 1
 64 127 l 1
 64 33 l 1
EndSplineSet
Validated: 1
EndChar

StartChar: one
Encoding: 49 49 16
Width: 160
Flags: HW
LayerCount: 2
Fore
SplineSet
32 0 m 1
 32 32 l 1
 64 32 l 1
 64 128 l 1
 32 128 l 1
 32 160 l 1
 96 160 l 1
 96 32 l 1
 128 32 l 1
 128 0 l 1
 32 0 l 1
EndSplineSet
Validated: 1
EndChar

StartChar: two
Encoding: 50 50 17
Width: 192
Flags: HW
LayerCount: 2
Fore
SplineSet
128 96 m 1
 128 128 l 1
 32 128 l 1
 32 160 l 1
 128 160 l 1
 128 128 l 1
 160 128 l 1
 160 96 l 1
 128 96 l 1
64 64 m 1
 64 96 l 1
 128 96 l 1
 128 64 l 1
 64 64 l 1
32 0 m 1
 32 64 l 1
 64 64 l 1
 64 32 l 1
 160 32 l 1
 160 0 l 1
 32 0 l 1
EndSplineSet
Validated: 5
EndChar

StartChar: three
Encoding: 51 51 18
Width: 192
Flags: HW
LayerCount: 2
Fore
SplineSet
128 96 m 1
 128 128 l 1
 32 128 l 1
 32 160 l 1
 128 160 l 1
 128 128 l 1
 160 128 l 1
 160 96 l 1
 128 96 l 1
128 32 m 1
 128 64 l 1
 64 64 l 1
 64 96 l 1
 128 96 l 1
 128 64 l 1
 160 64 l 1
 160 32 l 1
 128 32 l 1
32 0 m 1
 32 32 l 1
 128 32 l 1
 128 0 l 1
 32 0 l 1
EndSplineSet
Validated: 5
EndChar

StartChar: four
Encoding: 52 52 19
Width: 192
Flags: HW
LayerCount: 2
Fore
SplineSet
96 0 m 1
 96 64 l 1
 32 64 l 1
 32 160 l 1
 64 160 l 1
 64 96 l 1
 96 96 l 1
 96 160 l 1
 128 160 l 1
 128 96 l 1
 160 96 l 1
 160 64 l 1
 128 64 l 1
 128 0 l 1
 96 0 l 1
EndSplineSet
Validated: 1
EndChar

StartChar: five
Encoding: 53 53 20
Width: 192
Flags: HW
LayerCount: 2
Fore
SplineSet
128 32 m 1
 128 64 l 1
 32 64 l 1
 32 160 l 1
 160 160 l 1
 160 128 l 1
 64 128 l 1
 64 96 l 1
 128 96 l 1
 128 64 l 1
 160 64 l 1
 160 32 l 1
 128 32 l 1
32 0 m 1
 32 32 l 1
 128 32 l 1
 128 0 l 1
 32 0 l 1
EndSplineSet
Validated: 5
EndChar

StartChar: six
Encoding: 54 54 21
Width: 192
Flags: HW
LayerCount: 2
Fore
SplineSet
64 0 m 1
 64 32 l 1
 32 32 l 1
 32 128 l 1
 64 128 l 1
 64 160 l 1
 128 160 l 1
 128 128 l 1
 64 128 l 1
 64 96 l 1
 128 96 l 1
 128 64 l 1
 160 64 l 1
 160 32 l 1
 128 32 l 1
 128 0 l 1
 64 0 l 1
64 33 m 1
 128 33 l 1
 128 63 l 1
 64 63 l 1
 64 33 l 1
EndSplineSet
Validated: 5
EndChar

StartChar: seven
Encoding: 55 55 22
Width: 192
Flags: HW
LayerCount: 2
Fore
SplineSet
64 0 m 1
 64 64 l 1
 96 64 l 1
 96 96 l 1
 128 96 l 1
 128 128 l 1
 32 128 l 1
 32 160 l 1
 160 160 l 1
 160 96 l 1
 128 96 l 1
 128 64 l 1
 96 64 l 1
 96 0 l 1
 64 0 l 1
EndSplineSet
Validated: 5
EndChar

StartChar: eight
Encoding: 56 56 23
Width: 192
Flags: HW
LayerCount: 2
Fore
SplineSet
64 0 m 1
 64 32 l 1
 32 32 l 1
 32 64 l 1
 64 64 l 1
 64 96 l 1
 32 96 l 1
 32 128 l 1
 64 128 l 1
 64 160 l 1
 128 160 l 1
 128 128 l 1
 160 128 l 1
 160 96 l 1
 128 96 l 1
 128 64 l 1
 160 64 l 1
 160 32 l 1
 128 32 l 1
 128 0 l 1
 64 0 l 1
64 97 m 1
 128 97 l 1
 128 127 l 1
 64 127 l 1
 64 97 l 1
64 33 m 1
 128 33 l 1
 128 63 l 1
 64 63 l 1
 64 33 l 1
EndSplineSet
Validated: 1
EndChar

StartChar: nine
Encoding: 57 57 24
Width: 192
Flags: HW
LayerCount: 2
Fore
SplineSet
64 0 m 1
 64 32 l 1
 128 32 l 1
 128 64 l 1
 64 64 l 1
 64 96 l 1
 32 96 l 1
 32 128 l 1
 64 128 l 1
 64 160 l 1
 128 160 l 1
 128 128 l 1
 160 128 l 1
 160 32 l 1
 128 32 l 1
 128 0 l 1
 64 0 l 1
64 97 m 1
 128 97 l 1
 128 127 l 1
 64 127 l 1
 64 97 l 1
EndSplineSet
Validated: 5
EndChar

StartChar: colon
Encoding: 58 58 25
Width: 96
Flags: HW
LayerCount: 2
Fore
SplineSet
32 96 m 1
 32 128 l 1
 64 128 l 1
 64 96 l 1
 32 96 l 1
32 32 m 1
 32 64 l 1
 64 64 l 1
 64 32 l 1
 32 32 l 1
EndSplineSet
Validated: 1
EndChar

StartChar: semicolon
Encoding: 59 59 26
Width: 128
Flags: HW
LayerCount: 2
Fore
SplineSet
64 96 m 1
 64 128 l 1
 96 128 l 1
 96 96 l 1
 64 96 l 1
64 32 m 1
 64 64 l 1
 96 64 l 1
 96 32 l 1
 64 32 l 1
32 0 m 1
 32 32 l 1
 64 32 l 1
 64 0 l 1
 32 0 l 1
EndSplineSet
Validated: 5
EndChar

StartChar: less
Encoding: 60 60 27
Width: 160
Flags: HW
LayerCount: 2
Fore
SplineSet
96 128 m 1
 96 160 l 1
 128 160 l 1
 128 128 l 1
 96 128 l 1
64 96 m 1
 64 128 l 1
 96 128 l 1
 96 96 l 1
 64 96 l 1
96 0 m 1
 96 32 l 1
 64 32 l 1
 64 64 l 1
 32 64 l 1
 32 96 l 1
 64 96 l 1
 64 64 l 1
 96 64 l 1
 96 32 l 1
 128 32 l 1
 128 0 l 1
 96 0 l 1
EndSplineSet
Validated: 5
EndChar

StartChar: equal
Encoding: 61 61 28
Width: 160
Flags: HW
LayerCount: 2
Fore
SplineSet
32 96 m 1
 32 128 l 1
 128 128 l 1
 128 96 l 1
 32 96 l 1
32 32 m 1
 32 64 l 1
 128 64 l 1
 128 32 l 1
 32 32 l 1
EndSplineSet
Validated: 1
EndChar

StartChar: greater
Encoding: 62 62 29
Width: 160
Flags: HW
LayerCount: 2
Fore
SplineSet
96 64 m 1
 96 96 l 1
 64 96 l 1
 64 128 l 1
 32 128 l 1
 32 160 l 1
 64 160 l 1
 64 128 l 1
 96 128 l 1
 96 96 l 1
 128 96 l 1
 128 64 l 1
 96 64 l 1
64 32 m 1
 64 64 l 1
 96 64 l 1
 96 32 l 1
 64 32 l 1
32 0 m 1
 32 32 l 1
 64 32 l 1
 64 0 l 1
 32 0 l 1
EndSplineSet
Validated: 5
EndChar

StartChar: question
Encoding: 63 63 30
Width: 192
Flags: HW
LayerCount: 2
Fore
SplineSet
128 96 m 1
 128 128 l 1
 32 128 l 1
 32 160 l 1
 128 160 l 1
 128 128 l 1
 160 128 l 1
 160 96 l 1
 128 96 l 1
64 64 m 1
 64 96 l 1
 128 96 l 1
 128 64 l 1
 64 64 l 1
64 0 m 1
 64 32 l 1
 96 32 l 1
 96 0 l 1
 64 0 l 1
EndSplineSet
Validated: 5
EndChar

StartChar: at
Encoding: 64 64 31
Width: 224
Flags: HW
LayerCount: 2
Fore
SplineSet
96 64 m 1
 96 128 l 1
 64 128 l 1
 64 160 l 1
 160 160 l 1
 160 128 l 1
 192 128 l 1
 192 96 l 1
 160 96 l 1
 160 64 l 1
 96 64 l 1
64 0 m 1
 64 32 l 1
 32 32 l 1
 32 128 l 1
 64 128 l 1
 64 32 l 1
 160 32 l 1
 160 0 l 1
 64 0 l 1
128 96 m 1
 159 96 l 1
 159 128 l 1
 128 128 l 1
 128 96 l 1
EndSplineSet
Validated: 5
EndChar

StartChar: A
Encoding: 65 65 32
Width: 192
Flags: W
HStem: 0 21G<32 64 128 162.222> 0 21G<32 64 128 162.222> 64 32<64 128> 127 35<71.8 128> 127 33<64 128>
VStem: 32 32<0 64 96 127> 128 32<0 16.128>
LayerCount: 2
Fore
SplineSet
32 0 m 1xb6
 32 128 l 1
 64 128 l 1
 64 160 l 1xae
 139 162 l 5
 128 128 l 1
 176 144 l 1
 160 0 l 1
 128 0 l 1
 128 64 l 1
 64 64 l 1
 64 0 l 1
 32 0 l 1xb6
64 96 m 1
 128 96 l 1
 128 127 l 1x36
 64 127 l 1
 64 96 l 1
EndSplineSet
EndChar

StartChar: B
Encoding: 66 66 33
Width: 192
Flags: HW
LayerCount: 2
Fore
SplineSet
32 0 m 1
 32 160 l 1
 128 160 l 1
 128 128 l 1
 160 128 l 1
 160 32 l 1
 128 32 l 1
 128 0 l 1
 32 0 l 1
64 96 m 1
 127 96 l 1
 127 128 l 1
 64 128 l 1
 64 96 l 1
64 32 m 1
 127 32 l 1
 127 64 l 1
 64 64 l 1
 64 32 l 1
EndSplineSet
Validated: 1
EndChar

StartChar: C
Encoding: 67 67 34
Width: 192
Flags: HW
LayerCount: 2
Fore
SplineSet
128 96 m 1
 128 128 l 1
 64 128 l 1
 64 160 l 1
 128 160 l 1
 128 128 l 1
 160 128 l 1
 160 96 l 1
 128 96 l 1
64 0 m 1
 64 32 l 1
 32 32 l 1
 32 128 l 1
 64 128 l 1
 64 32 l 1
 128 32 l 1
 128 0 l 1
 64 0 l 1
128 32 m 1
 128 64 l 1
 160 64 l 1
 160 32 l 1
 128 32 l 1
EndSplineSet
Validated: 5
EndChar

StartChar: D
Encoding: 68 68 35
Width: 192
Flags: HW
LayerCount: 2
Fore
SplineSet
32 0 m 1
 32 160 l 1
 128 160 l 1
 128 128 l 1
 160 128 l 1
 160 32 l 1
 128 32 l 1
 128 0 l 1
 32 0 l 1
64 32 m 1
 127 32 l 1
 127 128 l 1
 64 128 l 1
 64 32 l 1
EndSplineSet
Validated: 1
EndChar

StartChar: E
Encoding: 69 69 36
Width: 160
Flags: HW
LayerCount: 2
Fore
SplineSet
32 0 m 1
 32 160 l 1
 128 160 l 1
 128 128 l 1
 64 128 l 1
 64 96 l 1
 128 96 l 1
 128 64 l 1
 64 64 l 1
 64 32 l 1
 128 32 l 1
 128 0 l 1
 32 0 l 1
EndSplineSet
Validated: 1
EndChar

StartChar: F
Encoding: 70 70 37
Width: 160
Flags: HW
LayerCount: 2
Fore
SplineSet
32 0 m 1
 32 160 l 1
 128 160 l 1
 128 128 l 1
 64 128 l 1
 64 96 l 1
 128 96 l 1
 128 64 l 1
 64 64 l 1
 64 0 l 1
 32 0 l 1
EndSplineSet
Validated: 1
EndChar

StartChar: G
Encoding: 71 71 38
Width: 192
Flags: HW
LayerCount: 2
Fore
SplineSet
64 128 m 1
 64 160 l 1
 160 160 l 1
 160 128 l 1
 64 128 l 1
32 32 m 1
 32 128 l 1
 64 128 l 1
 64 32 l 1
 32 32 l 1
128 32 m 1
 128 64 l 1
 96 64 l 1
 96 96 l 1
 160 96 l 1
 160 32 l 1
 128 32 l 1
64 0 m 1
 64 32 l 1
 128 32 l 1
 128 0 l 1
 64 0 l 1
EndSplineSet
Validated: 5
EndChar

StartChar: H
Encoding: 72 72 39
Width: 192
Flags: HW
LayerCount: 2
Fore
SplineSet
32 0 m 1
 32 160 l 1
 64 160 l 1
 64 96 l 1
 128 96 l 1
 128 160 l 1
 160 160 l 1
 160 0 l 1
 128 0 l 1
 128 64 l 1
 64 64 l 1
 64 0 l 1
 32 0 l 1
EndSplineSet
Validated: 1
EndChar

StartChar: I
Encoding: 73 73 40
Width: 96
Flags: W
HStem: 0 21G<32 64> 0 21G<32 64> 140 20G<32 64>
VStem: 32 32<0 160>
LayerCount: 2
Fore
SplineSet
32 0 m 1xb0
 32 160 l 1
 64 160 l 1
 64 0 l 1
 32 0 l 1xb0
EndSplineSet
Validated: 1
EndChar

StartChar: J
Encoding: 74 74 41
Width: 192
Flags: HW
LayerCount: 2
Fore
SplineSet
128 32 m 1
 128 160 l 1
 160 160 l 1
 160 32 l 1
 128 32 l 1
64 0 m 1
 64 32 l 1
 32 32 l 1
 32 64 l 1
 64 64 l 1
 64 32 l 1
 128 32 l 1
 128 0 l 1
 64 0 l 1
EndSplineSet
Validated: 5
EndChar

StartChar: K
Encoding: 75 75 42
Width: 192
Flags: HW
LayerCount: 2
Fore
SplineSet
32 0 m 1
 32 160 l 1
 64 160 l 1
 64 96 l 1
 96 96 l 1
 96 64 l 1
 128 64 l 1
 128 32 l 1
 160 32 l 1
 160 0 l 1
 128 0 l 1
 128 32 l 1
 96 32 l 1
 96 64 l 1
 64 64 l 1
 64 0 l 1
 32 0 l 1
128 128 m 1
 128 160 l 1
 160 160 l 1
 160 128 l 1
 128 128 l 1
96 96 m 1
 96 128 l 1
 128 128 l 1
 128 96 l 1
 96 96 l 1
EndSplineSet
Validated: 5
EndChar

StartChar: L
Encoding: 76 76 43
Width: 160
Flags: HW
LayerCount: 2
Fore
SplineSet
32 0 m 1
 32 160 l 1
 64 160 l 1
 64 32 l 1
 128 32 l 1
 128 0 l 1
 32 0 l 1
EndSplineSet
Validated: 1
EndChar

StartChar: M
Encoding: 77 77 44
Width: 224
Flags: HW
LayerCount: 2
Fore
SplineSet
32 0 m 1
 32 160 l 1
 64 160 l 1
 64 128 l 1
 96 128 l 1
 96 96 l 1
 128 96 l 1
 128 64 l 1
 96 64 l 1
 96 96 l 1
 64 96 l 1
 64 0 l 1
 32 0 l 1
160 0 m 1
 160 96 l 1
 128 96 l 1
 128 128 l 1
 160 128 l 1
 160 160 l 1
 192 160 l 1
 192 0 l 1
 160 0 l 1
EndSplineSet
Validated: 5
EndChar

StartChar: N
Encoding: 78 78 45
Width: 224
Flags: HW
LayerCount: 2
Fore
SplineSet
32 0 m 1
 32 160 l 1
 64 160 l 1
 64 128 l 1
 96 128 l 1
 96 96 l 1
 128 96 l 1
 128 64 l 1
 160 64 l 1
 160 160 l 1
 192 160 l 1
 192 0 l 1
 160 0 l 1
 160 32 l 1
 128 32 l 1
 128 64 l 1
 96 64 l 1
 96 96 l 1
 64 96 l 1
 64 0 l 1
 32 0 l 1
EndSplineSet
Validated: 5
EndChar

StartChar: O
Encoding: 79 79 46
Width: 192
Flags: W
HStem: 0 33<64 128> 127 33<64 128>
VStem: 32 32<33 127> 64 64<0 32 128 160> 128 32<33 127>
LayerCount: 2
Fore
SplineSet
64 0 m 1xd0
 64 32 l 1xd0
 32 32 l 1
 32 128 l 1xe0
 64 128 l 1
 64 160 l 1
 128 160 l 1
 128 128 l 1xd0
 160 128 l 1
 160 32 l 1xc8
 128 32 l 1
 128 0 l 1
 64 0 l 1xd0
64 33 m 1xe8
 128 33 l 1
 128 127 l 1
 64 127 l 1
 64 33 l 1xe8
EndSplineSet
Validated: 1
EndChar

StartChar: P
Encoding: 80 80 47
Width: 192
Flags: HW
LayerCount: 2
Fore
SplineSet
32 0 m 1
 32 160 l 1
 128 160 l 1
 128 128 l 1
 160 128 l 1
 160 96 l 1
 128 96 l 1
 128 64 l 1
 64 64 l 1
 64 0 l 1
 32 0 l 1
64 96 m 1
 127 96 l 1
 127 128 l 1
 64 128 l 1
 64 96 l 1
EndSplineSet
Validated: 1
EndChar

StartChar: Q
Encoding: 81 81 48
Width: 192
Flags: HW
LayerCount: 2
Fore
SplineSet
128 -32 m 1
 128 0 l 1
 64 0 l 1
 64 32 l 1
 32 32 l 1
 32 128 l 1
 64 128 l 1
 64 160 l 1
 128 160 l 1
 128 128 l 1
 160 128 l 1
 160 32 l 1
 128 32 l 1
 128 0 l 1
 160 0 l 1
 160 -32 l 1
 128 -32 l 1
64 33 m 1
 128 33 l 1
 128 127 l 1
 64 127 l 1
 64 33 l 1
EndSplineSet
Validated: 5
EndChar

StartChar: R
Encoding: 82 82 49
Width: 192
Flags: HW
LayerCount: 2
Fore
SplineSet
32 0 m 1
 32 160 l 1
 128 160 l 1
 128 128 l 1
 160 128 l 1
 160 96 l 1
 128 96 l 1
 128 32 l 1
 160 32 l 1
 160 0 l 1
 128 0 l 1
 128 32 l 1
 96 32 l 1
 96 64 l 1
 64 64 l 1
 64 0 l 1
 32 0 l 1
64 96 m 1
 127 96 l 1
 127 128 l 1
 64 128 l 1
 64 96 l 1
EndSplineSet
Validated: 5
EndChar

StartChar: S
Encoding: 83 83 50
Width: 192
Flags: HW
LayerCount: 2
Fore
SplineSet
64 128 m 1
 64 160 l 1
 160 160 l 1
 160 128 l 1
 64 128 l 1
128 32 m 1
 128 64 l 1
 64 64 l 1
 64 96 l 1
 32 96 l 1
 32 128 l 1
 64 128 l 1
 64 96 l 1
 128 96 l 1
 128 64 l 1
 160 64 l 1
 160 32 l 1
 128 32 l 1
32 0 m 1
 32 32 l 1
 128 32 l 1
 128 0 l 1
 32 0 l 1
EndSplineSet
Validated: 5
EndChar

StartChar: T
Encoding: 84 84 51
Width: 160
Flags: HW
LayerCount: 2
Fore
SplineSet
64 0 m 1
 64 128 l 1
 32 128 l 1
 32 160 l 1
 128 160 l 1
 128 128 l 1
 96 128 l 1
 96 0 l 1
 64 0 l 1
EndSplineSet
Validated: 1
EndChar

StartChar: U
Encoding: 85 85 52
Width: 192
Flags: HW
LayerCount: 2
Fore
SplineSet
64 0 m 1
 64 32 l 1
 32 32 l 1
 32 160 l 1
 64 160 l 1
 64 32 l 1
 128 32 l 1
 128 0 l 1
 64 0 l 1
128 32 m 1
 128 160 l 1
 160 160 l 1
 160 32 l 1
 128 32 l 1
EndSplineSet
Validated: 5
EndChar

StartChar: V
Encoding: 86 86 53
Width: 224
Flags: HW
LayerCount: 2
Fore
SplineSet
96 0 m 1
 96 32 l 1
 64 32 l 1
 64 96 l 1
 32 96 l 1
 32 160 l 1
 64 160 l 1
 64 96 l 1
 96 96 l 1
 96 32 l 1
 128 32 l 1
 128 0 l 1
 96 0 l 1
160 96 m 1
 160 160 l 1
 192 160 l 1
 192 96 l 1
 160 96 l 1
128 32 m 1
 128 96 l 1
 160 96 l 1
 160 32 l 1
 128 32 l 1
EndSplineSet
Validated: 5
EndChar

StartChar: W
Encoding: 87 87 54
Width: 224
Flags: HW
LayerCount: 2
Fore
SplineSet
64 0 m 1
 64 32 l 1
 32 32 l 1
 32 160 l 1
 64 160 l 1
 64 32 l 1
 96 32 l 1
 96 0 l 1
 64 0 l 1
160 32 m 1
 160 160 l 1
 192 160 l 1
 192 32 l 1
 160 32 l 1
128 0 m 1
 128 32 l 1
 96 32 l 1
 96 128 l 1
 128 128 l 1
 128 32 l 1
 160 32 l 1
 160 0 l 1
 128 0 l 1
EndSplineSet
Validated: 5
EndChar

StartChar: X
Encoding: 88 88 55
Width: 224
Flags: HW
LayerCount: 2
Fore
SplineSet
160 0 m 1
 160 32 l 1
 128 32 l 1
 128 64 l 1
 96 64 l 1
 96 96 l 1
 64 96 l 1
 64 128 l 1
 32 128 l 1
 32 160 l 1
 64 160 l 1
 64 128 l 1
 96 128 l 1
 96 96 l 1
 128 96 l 1
 128 64 l 1
 160 64 l 1
 160 32 l 1
 192 32 l 1
 192 0 l 1
 160 0 l 1
128 96 m 1
 128 128 l 1
 160 128 l 1
 160 160 l 1
 192 160 l 1
 192 128 l 1
 160 128 l 1
 160 96 l 1
 128 96 l 1
64 32 m 1
 64 64 l 1
 96 64 l 1
 96 32 l 1
 64 32 l 1
32 0 m 1
 32 32 l 1
 64 32 l 1
 64 0 l 1
 32 0 l 1
EndSplineSet
Validated: 5
EndChar

StartChar: Y
Encoding: 89 89 56
Width: 224
Flags: HW
LayerCount: 2
Fore
SplineSet
96 0 m 1
 96 96 l 1
 64 96 l 1
 64 128 l 1
 32 128 l 1
 32 160 l 1
 64 160 l 1
 64 128 l 1
 96 128 l 1
 96 96 l 1
 128 96 l 1
 128 0 l 1
 96 0 l 1
160 128 m 1
 160 160 l 1
 192 160 l 1
 192 128 l 1
 160 128 l 1
128 96 m 1
 128 128 l 1
 160 128 l 1
 160 96 l 1
 128 96 l 1
EndSplineSet
Validated: 5
EndChar

StartChar: Z
Encoding: 90 90 57
Width: 160
Flags: HW
LayerCount: 2
Fore
SplineSet
96 96 m 1
 96 128 l 1
 32 128 l 1
 32 160 l 1
 128 160 l 1
 128 96 l 1
 96 96 l 1
64 64 m 1
 64 96 l 1
 96 96 l 1
 96 64 l 1
 64 64 l 1
32 0 m 1
 32 64 l 1
 64 64 l 1
 64 32 l 1
 128 32 l 1
 128 0 l 1
 32 0 l 1
EndSplineSet
Validated: 5
EndChar

StartChar: bracketleft
Encoding: 91 91 58
Width: 128
Flags: HW
LayerCount: 2
Fore
SplineSet
32 0 m 1
 32 160 l 1
 96 160 l 1
 96 128 l 1
 64 128 l 1
 64 32 l 1
 96 32 l 1
 96 0 l 1
 32 0 l 1
EndSplineSet
Validated: 1
EndChar

StartChar: backslash
Encoding: 92 92 59
Width: 160
Flags: HW
LayerCount: 2
Fore
SplineSet
96 0 m 1
 96 64 l 1
 64 64 l 1
 64 96 l 1
 32 96 l 1
 32 160 l 1
 64 160 l 1
 64 96 l 1
 96 96 l 1
 96 64 l 1
 128 64 l 1
 128 0 l 1
 96 0 l 1
EndSplineSet
Validated: 5
EndChar

StartChar: bracketright
Encoding: 93 93 60
Width: 128
Flags: HW
LayerCount: 2
Fore
SplineSet
32 0 m 1
 32 32 l 1
 64 32 l 1
 64 128 l 1
 32 128 l 1
 32 160 l 1
 96 160 l 1
 96 0 l 1
 32 0 l 1
EndSplineSet
Validated: 1
EndChar

StartChar: asciicircum
Encoding: 94 94 61
Width: 160
Flags: HW
LayerCount: 2
Fore
SplineSet
32 128 m 1
 32 160 l 1
 64 160 l 1
 64 192 l 1
 96 192 l 1
 96 160 l 1
 128 160 l 1
 128 128 l 1
 96 128 l 1
 96 160 l 1
 64 160 l 1
 64 128 l 1
 32 128 l 1
EndSplineSet
Validated: 5
EndChar

StartChar: underscore
Encoding: 95 95 62
Width: 192
Flags: HW
LayerCount: 2
Fore
SplineSet
32 -32 m 1
 32 0 l 1
 160 0 l 1
 160 -32 l 1
 32 -32 l 1
EndSplineSet
Validated: 1
EndChar
